<svg xmlns="http://www.w3.org/2000/svg" viewBox="0 0 32 32" id="Bike">
  <path fill="#86844c" d="M2.829 17.304a.5.5 0 0 1-.416-.777l1-1.5a.5.5 0 0 1 .219-.183l3.342-1.432a.501.501 0 0 1 .394.92l-3.205 1.373-.918 1.376a.5.5 0 0 1-.416.223z" class="color4c6d86 svgShape"></path>
  <path fill="#7d7b41" d="m5.886 14.967 1.482-.635a.501.501 0 0 0-.394-.92l-2.319.993 1.231.562z" class="color41667d svgShape"></path>
  <circle cx="7" cy="20.304" r="3.5" fill="#42423b" class="color3c3b42 svgShape"></circle>
  <path fill="#2f2f2a" d="M7 16.804c-.214 0-.422.026-.625.063 1.634.296 2.875 1.718 2.875 3.437s-1.241 3.141-2.875 3.437c.203.037.411.063.625.063a3.5 3.5 0 1 0 0-7z" class="color2b2a2f svgShape"></path>
  <circle cx="7" cy="20.304" r="2" fill="#fdfa87" class="colord5e5f1 svgShape"></circle>
  <path fill="#959461" d="m8 20.304 5.35-1.12-1.193-2.853-4.569 3.166z" class="color617e95 svgShape"></path>
  <circle cx="7" cy="20.304" r="1" fill="#86844c" class="color4c6d86 svgShape"></circle>
  <path fill="#86844c" d="m12.157 16.331-1.635 1.133c.097.145.205.282.286.438.276.529.461 1.102.566 1.696l1.975-.413-1.192-2.854z" class="color4c6d86 svgShape"></path>
  <circle cx="25" cy="20.304" r="3.5" fill="#42423b" class="color3c3b42 svgShape"></circle>
  <path fill="#2f2f2a" d="M22.5 21.304a3.5 3.5 0 0 1 3.5-3.5c.71 0 1.37.215 1.921.579A3.493 3.493 0 0 0 25 16.804a3.5 3.5 0 0 0-3.5 3.5 3.49 3.49 0 0 0 1.579 2.921 3.473 3.473 0 0 1-.579-1.921z" class="color2b2a2f svgShape"></path>
  <circle cx="25" cy="20.304" r="2" fill="#fdfa87" class="colord5e5f1 svgShape"></circle>
  <path fill="#959461" d="m24.457 20.071-1.963-2.989L24.26 15.9l.974 3.85z" class="color617e95 svgShape"></path>
  <circle cx="25" cy="20.304" r="1" fill="#86844c" class="color4c6d86 svgShape"></circle>
  <path fill="#86844c" d="m24.26 15.9-1.766 1.182.653.995c.447-.33.94-.594 1.46-.801L24.26 15.9z" class="color4c6d86 svgShape"></path>
  <path fill="#cac762" d="M23.339 8.915 20.5 7.804l1.415 2.397a.495.495 0 0 1-.524.74A7.056 7.056 0 0 0 20 10.804c-2.326 0-4.265 1.115-4.821 2.622-.076.205-.252.354-.471.355l-3.955.023a.5.5 0 0 1-.403-.2l-1.2-1.6a.502.502 0 0 0-.401-.2l-5.249.009c-.504 0-.691.66-.263.925l5.762 2.626c1.176.536 2.211 1.393 2.809 2.539.432.827.667 1.757.667 2.718v1.184a1 1 0 0 0 1 1h6.047a1 1 0 0 0 .993-.948c.017-.251.048-.505.094-.76.485-2.695 2.72-4.835 5.431-5.223a6.628 6.628 0 0 1 1.844-.009.489.489 0 0 0 .544-.549 8.142 8.142 0 0 0-5.089-6.401zm-.805 2.398.031-.012.001.002-.032.01z" class="color92ca62 svgShape"></path>
  <path fill="#bcb958" d="m24.565 11.301-.031.012.032-.01zm-5.09 11.503h-2 2.047zm-6.722-9 3.955-.023c.219-.001.395-.15.471-.355.474-1.283 1.954-2.275 3.819-2.544a7.064 7.064 0 0 0-.998-.078c-2.326 0-4.265 1.115-4.821 2.622-.076.205-.252.354-.471.355l-2.003.012c.016.001.031.011.048.011zM8.15 12.005l1.2 1.6a.5.5 0 0 0 .403.2l.976-.006a.498.498 0 0 1-.379-.194l-1.2-1.6a.502.502 0 0 0-.401-.2l-.994.002a.494.494 0 0 1 .395.198zm13.416-.702-.001-.002-.031.012z" class="color71bc58 svgShape"></path>
  <path fill="#bcb958" d="M23.339 8.915 20.5 7.804l.3.509 1.539.602a8.141 8.141 0 0 1 5.088 6.4.482.482 0 0 1-.283.5c.249.006.497.016.738.048a.489.489 0 0 0 .544-.549 8.136 8.136 0 0 0-5.087-6.399zm1.7 6.958c-2.711.388-4.946 2.528-5.431 5.223a6.945 6.945 0 0 0-.094.76 1 1 0 0 1-.993.948h1a1 1 0 0 0 .993-.948c.017-.251.048-.505.094-.76.485-2.695 2.719-4.835 5.431-5.223.157-.023.31-.023.466-.034a6.63 6.63 0 0 0-1.466.034zm-17.04-1.51L3.05 12.108a.489.489 0 0 0 .187.63l5.762 2.626c.485.221.935.51 1.351.837-.606-.797-1.431-1.418-2.351-1.838z" class="color71bc58 svgShape"></path>
  <path fill="#bcb958" stroke="#bcb958" stroke-linecap="round" stroke-linejoin="round" stroke-miterlimit="10" d="M14.5 20.804h2" class="color71bc58 svgShape colorStroke71bc58 svgStroke"></path>
  <path fill="#fdfa87" d="M25.149 9.903a3.201 3.201 0 0 0-.149.901 3.128 3.128 0 0 0 3.094 3.117 8.179 8.179 0 0 0-2.945-4.018z" class="colord5e5f1 svgShape"></path>
  <path fill="#dad9b0" d="M27 13.701c.341.133.707.216 1.093.22a8.174 8.174 0 0 0-2.945-4.018 3.487 3.487 0 0 0-.134.738A8.16 8.16 0 0 1 27 13.701z" class="colorb0c4da svgShape"></path>
</svg>
