<svg xmlns="http://www.w3.org/2000/svg" viewBox="0 0 512 512" id="insurance">
  <path fill="#aeadb3" d="M49.34 237.08a7.5 7.5 0 0 1-7.5-7.5V216.3a7.5 7.5 0 0 1 7.5-7.5c4.14 0 7.5-11.64 7.5-7.5v28.28A7.5 7.5 0 0 1 49.34 237.08zM256 29.14a7.51 7.51 0 0 1-7.5-7.44l-.11-14.14A7.49 7.49 0 0 1 255.81 0h.07a7.51 7.51 0 0 1 7.5 7.44l.11 14.14a7.49 7.49 0 0 1-7.43 7.56zM173.7 234.19a7.5 7.5 0 0 1-7.5-7.5V193.51a7.5 7.5 0 0 1 15 0v33.18A7.5 7.5 0 0 1 173.7 234.19zM340 235.06a7.5 7.5 0 0 1-7.5-7.5V194.37a7.5 7.5 0 0 1 15 0v33.19A7.5 7.5 0 0 1 340 235.06zM462.67 237.08a7.5 7.5 0 0 1-7.5-7.5V201.3c0-4.14 3.36 7.5 7.5 7.5a7.5 7.5 0 0 1 7.5 7.5v13.28A7.49 7.49 0 0 1 462.67 237.08zM256.86 388.18a7.5 7.5 0 0 1-7.5-7.5V198.82a7.5 7.5 0 0 1 15 0V380.68A7.5 7.5 0 0 1 256.86 388.18z"></path>
  <path fill="#fddd5a" d="M41.83,216c0-107.12,95.88-194,214.16-194s214.17,86.84,214.17,194A145.76,145.76,0,0,0,420,198.72c-36.92-5.49-66.4,4.87-79.91,10.65a343.65,343.65,0,0,0-166.34-.86c-14.24-5.78-44.3-15.63-81.66-9.79A151.48,151.48,0,0,0,41.83,216Z"></path>
  <path fill="#fed030" d="M439.67,203.09A147.09,147.09,0,0,1,470.16,216c0-107.12-95.88-194-214.17-194q-7.56,0-15,.49C347.55,29.23,432.65,106.5,439.67,203.09Z"></path>
  <path fill="#fed030" d="M173.7,208.51C181.64,98.07,223.06,22.24,256,22.07s75.5,75.72,84.05,187.3a343.65,343.65,0,0,0-166.34-.86Z"></path>
  <circle cx="115.5" cy="268.15" r="22.66" fill="#57565c"></circle>
  <path fill="#3c3b41" d="M115.5,245.49a22.71,22.71,0,0,0-7.5,1.27,22.67,22.67,0,0,1,0,42.78,22.66,22.66,0,1,0,7.5-44.05Z"></path>
  <path fill="#57565c" d="M157.45,340c-2.72,23.94-23.89,40.94-45.9,38.93-19.43-1.77-35.84-18-38-38.93q-1.31-5.52-2.6-11.06a45,45,0,0,1,44.82-55.32l1.48,0A45,45,0,0,1,160.05,329Z"></path>
  <path fill="#3c3b41" d="M117.21,273.64l-1.48,0a46,46,0,0,0-7.84.51A45,45,0,0,1,145.05,329l-2.6,11c-2.26,19.88-17.24,35-34.86,38.36a39.73,39.73,0,0,0,4,.57c22,2,43.18-15,45.9-38.93l2.6-11A45,45,0,0,0,117.21,273.64Z"></path>
  <path fill="#1cabe1" d="M223.5,461.06V512H7.5V461.05a39.21,39.21,0,0,1,27.77-37.5l19.06-5.82h0L64,414.79l11.37-3.46a19.58,19.58,0,0,0,13.88-18.74v-8.94h52v8.8a19.6,19.6,0,0,0,13.88,18.74l21,6.41,19.56,6a39.21,39.21,0,0,1,27.78,37.5Z"></path>
  <path fill="#fdd8ae" d="M176.16,417.6c-3.38,3.37-25.76,24.93-59.87,22.68C86,438.28,67.71,418.93,64,414.79l11.37-3.46a19.52,19.52,0,0,0,9.26-6.1,18.64,18.64,0,0,0,1.76-2.46,19.47,19.47,0,0,0,2.86-10.18v-8.94h52v8.8A19.53,19.53,0,0,0,145,404c.27.38.57.75.87,1.11a19.58,19.58,0,0,0,9.23,6.07Z"></path>
  <path fill="#fbbf7d" d="M145,404c-7,11.16-16.76,20.46-28.49,20.5-12.84.05-23.17-9.87-30.18-21.74a19.47,19.47,0,0,0,2.86-10.18v-8.94h52v8.8A19.53,19.53,0,0,0,145,404Z"></path>
  <path fill="#fdd8ae" d="M156,362.15c-3.36,16.85-18.21,47.29-39.46,47.36-22.77.09-37.63-31.17-40.16-49.09-3-21.11,10.54-36,30.46-47.34-.57.32,7.14,7.91,8,8.62,4.93,4.21,11.76,6.67,18.58,7.73,5.76.9,13,1,16.59,5.57C156.17,342.87,157.88,352.73,156,362.15Z"></path>
  <path fill="#fbbf7d" d="M150,335c-3.61-4.6-10.83-4.67-16.59-5.57-6.82-1.06-13.65-3.52-18.58-7.73-.83-.71-8.54-8.3-8-8.62a105,105,0,0,0-9.59,6.14c1.24,1.24,2.29,2.24,2.56,2.48,4.93,4.21,11.76,6.67,18.58,7.73,5.76.9,13,1,16.59,5.57,6.19,7.87,7.9,17.73,6,27.15-3,14.87-14.88,40.29-32.22,46.13a24.77,24.77,0,0,0,7.76,1.23c21.25-.07,36.1-30.51,39.46-47.36C157.88,352.73,156.17,342.87,150,335Z"></path>
  <path fill="#57565c" d="M435.75,331.34H358.47l-7.15-33c-4.58-21.16,10.18-41.62,30.2-41.51H382c7.33.1,12.3,1.45,20.34,3.22,4.09.9,8.83,1.87,14.17,2.84,17.74,3.22,29.3,22,25.18,41Q438.71,317.65,435.75,331.34Z"></path>
  <path fill="#3c3b41" d="M416.5,262.91c-5.34-1-10.08-1.94-14.17-2.84-8-1.77-13-3.12-20.34-3.22h-.47a29.08,29.08,0,0,0-6.38.69c3.74.58,7.43,1.48,12.19,2.53,4.09.9,8.83,1.87,14.17,2.84,17.74,3.22,29.3,22,25.18,41q-3,13.69-5.93,27.38h15q3-13.68,5.93-27.38C445.8,285,434.24,266.13,416.5,262.91Z"></path>
  <path fill="#eb304a" d="M504.5,461.06V512h-216V461.05a39.21,39.21,0,0,1,27.77-37.5l18.47-5.64.59-.18h0l21-6.4a19.48,19.48,0,0,0,9.25-6.09h0a19.58,19.58,0,0,0,4.62-12.64q1.14-9.36,2.3-18.73a38.5,38.5,0,0,1,14.54-19.67c4-2.73,14-9.51,23.24-5.5,8.06,3.5,13,14,11.47,25.79.22,7.36.39,13.29.48,18a19.51,19.51,0,0,0,4.65,12.67l.44.51a19.62,19.62,0,0,0,8,5.3l.79.26,21,6.41,1.12.34,18.44,5.62A39.21,39.21,0,0,1,504.5,461.06Z"></path>
  <path fill="#e4222e" d="M476.72,423.56l-18.44-5.62-1.12-.34-21-6.41-.79-.26a19.62,19.62,0,0,1-8-5.3l-.44-.51a19.51,19.51,0,0,1-4.65-12.67c-.09-4.68-.26-10.61-.48-18,1.49-11.75-3.41-22.29-11.47-25.79-9.26-4-19.2,2.76-23.23,5.49,3.81,5,5.71,12.39,4.7,20.3.22,7.36.39,13.29.48,18a19.51,19.51,0,0,0,4.65,12.67l.44.51a19.62,19.62,0,0,0,8,5.3l.79.26,21,6.41,1.12.34,18.44,5.62a39.21,39.21,0,0,1,27.78,37.5V512h30V461.06A39.21,39.21,0,0,0,476.72,423.56Z"></path>
  <path fill="#fdd8ae" d="M426.9,405.12l-30.4,30.05-30.9-29.94a19.58,19.58,0,0,0,4.62-12.64c.16-1.28.31-2.55.47-3.83.6-5,1.22-9.93,1.83-14.9a38.5,38.5,0,0,1,14.54-19.67c4-2.73,14-9.51,23.24-5.5,8.06,3.5,13,14,11.47,25.79.17,5.64.31,10.44.41,14.48,0,1.24.05,2.4.07,3.49a19.51,19.51,0,0,0,4.65,12.67Z"></path>
  <path fill="#fbbf7d" d="M422.18,389c-6.78,8.82-15.78,15.19-25.67,15.19s-19-6.47-25.82-15.39c.6-5,1.22-9.93,1.83-14.9a38.5,38.5,0,0,1,14.54-19.67c4-2.73,14-9.51,23.24-5.5,8.06,3.5,13,14,11.47,25.79C421.94,380.12,422.08,384.92,422.18,389Z"></path>
  <path fill="#fdd8ae" d="M434.56,340.64c0,19.73-17,48.51-38.05,48.51s-38-28.78-38-48.51V326.49c-.55-7.52,1.15-12.31,4.43-15.07,6.37-5.35,15,0,22.8-5.49s13.94-7.26,21.91-1.71c8.5,5.91,16.39,1.5,22.52,7.2,2.42,2.26,5,6.47,4.43,15.07Z"></path>
  <path fill="#fbbf7d" d="M430.13,311.42c-6.13-5.7-14-1.29-22.52-7.2-6.22-4.33-11.43-4.14-17.06-1.27a21.3,21.3,0,0,1,2.06,1.27c8.5,5.91,16.39,1.5,22.52,7.2,2.42,2.26,5,6.47,4.43,15.07v14.15c0,17.31-13.13,41.6-30.55,47.28a23.91,23.91,0,0,0,7.5,1.23c21,0,38.05-28.78,38.05-48.51V326.49C435.1,317.89,432.55,313.68,430.13,311.42Z"></path>
  <path fill="#c0232c" d="M395.82 424.13l-27.36 22a7 7 0 0 1-9.66-.85l-24.06-27.39.59-.18h0l21-6.4a19.48 19.48 0 0 0 9.25-6.09zM458.28 417.94l-24.77 27.37a7 7 0 0 1-9.65.84l-27.36-22 30.4-19 .44.51a19.62 19.62 0 0 0 8 5.3l.79.26 21 6.41z"></path>
  <path fill="#c0232c" d="M404,431.63V511a6.63,6.63,0,0,1-.07,1H389.07a6.63,6.63,0,0,1-.07-1V431.63a7.5,7.5,0,0,1,15,0Z"></path>
  <path fill="#57565c" d="M289.72,367.67H222.25L216,341.16a27.1,27.1,0,0,1,26.36-33.37h.41c6.41.08,10.75,1.17,17.76,2.59,3.58.72,7.71,1.5,12.38,2.28a27.17,27.17,0,0,1,22,33Z"></path>
  <path fill="#3c3b41" d="M272.92,312.66c-4.67-.78-8.8-1.56-12.38-2.28-7-1.42-11.35-2.51-17.76-2.59h-.41a27.08,27.08,0,0,0-6.36.72c2.89.47,5.84,1.12,9.53,1.87s7.71,1.5,12.38,2.28a27.17,27.17,0,0,1,22,33q-2.59,11-5.18,22h15q2.59-11,5.18-22A27.17,27.17,0,0,0,272.92,312.66Z"></path>
  <path fill="#199ad5" d="M223.5,461.06V512H154.18V469.57a31.52,31.52,0,0,1,22.33-30.14l15.32-4.68,7.08-2.15,9.08-2.77A39.19,39.19,0,0,1,223.5,461.06Z"></path>
  <path fill="#e4222e" d="M357.81,469.58V512H288.5V461.05A39.21,39.21,0,0,1,304,429.84l14.9,4.54.88.27,15.72,4.79A31.52,31.52,0,0,1,357.81,469.58Z"></path>
  <path fill="#fecc30" d="M342.81,469.58V512H169.18V469.57a31.52,31.52,0,0,1,22.33-30.14l15.32-4.68,7.08-2.15,9.81-3a15.72,15.72,0,0,0,11.15-15.07v-7.18h41.82v7.07a15.76,15.76,0,0,0,11.16,15.07l16,4.88.88.27,15.72,4.79A31.52,31.52,0,0,1,342.81,469.58Z"></path>
  <path fill="#f8be32" d="M320.48,439.44l-15.72-4.79-.88-.27-16-4.88a15.76,15.76,0,0,1-11.16-15.07v-7.07h-15v7.07a15.76,15.76,0,0,0,11.16,15.07l16,4.88.88.27,15.72,4.79a31.52,31.52,0,0,1,22.33,30.14V512h15V469.58A31.52,31.52,0,0,0,320.48,439.44Z"></path>
  <path fill="#fdd8ae" d="M303.9,434.65c-2.72,2.71-20.7,20-48.12,18.23-23.86-1.58-38.47-16.56-41.87-20.28l9.81-3a15.71,15.71,0,0,0,9.59-8.22,15.74,15.74,0,0,0,1.56-6.85v-7.18h41.82v7.07a15.69,15.69,0,0,0,.52,4,15.26,15.26,0,0,0,1.22,3.18,16.32,16.32,0,0,0,2,3,15.81,15.81,0,0,0,7.42,4.88l16,4.88Z"></path>
  <path fill="#fbbf7d" d="M234.87,415.2h41.82v7.07a15.67,15.67,0,0,0,1.74,7.19,12.44,12.44,0,0,0,2,3,12.1,12.1,0,0,0,7.4,3.49l12.34,1.87c3.49-2.57,2.91-2.35,3.73-3.17l0-.27-16-4.88a15.81,15.81,0,0,1-7.42-4.88,16.32,16.32,0,0,1-2-3,15.67,15.67,0,0,1-1.74-7.19v-7.07H234.87Z"></path>
  <path fill="#fbbf7d" d="M277.21,418.44a33.62,33.62,0,0,1-42.76-.27,15.61,15.61,0,0,0,.42-3.63v-7.18h41.82v7.07A15.69,15.69,0,0,0,277.21,418.44Z"></path>
  <path fill="#fdd8ae" d="M289.66,381.54a33.66,33.66,0,0,1-67.32,0V368.21c-.49-7.09,1-11.6,3.92-14.2,5.63-5.05,13.28,0,20.17-5.18s12.34-6.84,19.39-1.61c7.51,5.57,14.5,1.41,19.92,6.79,2.14,2.12,4.4,6.09,3.92,14.2Z"></path>
  <path fill="#fbbf7d" d="M285.74,354c-5.42-5.38-12.41-1.22-19.92-6.79-5.84-4.33-10.67-3.87-16-.69.33.22.66.44,1,.69,7.51,5.57,14.5,1.41,19.92,6.79,2.14,2.12,4.4,6.09,3.92,14.2v13.33a33.66,33.66,0,0,1-26.16,32.81,33.65,33.65,0,0,0,41.16-32.81V368.21C290.14,360.1,287.88,356.13,285.74,354Z"></path>
</svg>
