<svg xmlns="http://www.w3.org/2000/svg" viewBox="0 0 64 64" id="carlculation">
  <path fill="#898989" d="M12,41.284V9a3,3,0,0,1,3-3H49a3,3,0,0,1,3,3V41"></path>
  <path fill="#a0a0a0" d="M52,9a3,3,0,0,0-3-3H15A32.056,32.056,0,0,0,47.285,38.054L52,38.02Z"></path>
  <polyline fill="#55b4f0" points="47 33 47 24 37 24 37 32"></polyline>
  <rect width="32" height="10" x="16" y="10" fill="#93d3f5"></rect>
  <rect width="6" height="6" x="17" y="24" fill="#6cc2f1"></rect>
  <rect width="6" height="6" x="17" y="34" fill="#6cc2f1"></rect>
  <rect width="6" height="6" x="27" y="24" fill="#6cc2f1"></rect>
  <path fill="#f4b43f" d="M4,52V45H4a2.473,2.473,0,0,1,1.956-2.419L18,40l3.021-2.685C24.872,33.891,31.847,32,37,32H48A11,11,0,0,1,59,43v9"></path>
  <path fill="#f7c445" d="M52.5,32.97A10.953,10.953,0,0,0,48,32H37c-5.153,0-12.128,1.891-15.979,5.315L18,40,5.956,42.581A2.473,2.473,0,0,0,4,45v2H50a6,6,0,0,0,6-6A10.959,10.959,0,0,0,52.5,32.97Z"></path>
  <path fill="#606160" d="M22.418,50H42.582l12.71-3H59a3,3,0,0,1,3,3h0a3,3,0,0,1-3,3H2V49H8.07Z"></path>
  <path fill="#898989" d="M58,53a8,8,0,0,0-16,0"></path>
  <circle cx="50" cy="53" r="5" fill="#606160"></circle>
  <path fill="#747574" d="M50,48a4.969,4.969,0,0,0-3.855,1.851,4.977,4.977,0,0,0,8.71,4.3A4.958,4.958,0,0,0,50,48Z"></path>
  <path fill="#898989" d="M23,53A8,8,0,0,0,7,53"></path>
  <path fill="#93d3f5" d="M48,32H37c-5.153,0-12.128,1.891-15.979,5.315L18,40H58.575A11,11,0,0,0,48,32Z"></path>
  <path fill="#bce3fa" d="M37,32c-5.153,0-12.128,1.891-15.979,5.315L19.125,39h27.26c3.991,0,5.079-4.752,2.868-6.921A11.253,11.253,0,0,0,48,32Z"></path>
  <rect width="2" height="8" x="38" y="32" fill="#f7c445"></rect>
  <path fill="#f7c445" d="M48,32H47v8h2V32.047C48.67,32.018,48.337,32,48,32Z"></path>
  <circle cx="15" cy="53" r="5" fill="#606160"></circle>
  <path fill="#747574" d="M15,48a4.969,4.969,0,0,0-3.855,1.851,4.977,4.977,0,0,0,8.71,4.3A4.958,4.958,0,0,0,15,48Z"></path>
  <circle cx="15" cy="53" r="2" fill="#a0a0a0"></circle>
  <circle cx="50" cy="53" r="2" fill="#a0a0a0"></circle>
  <rect width="4" height="2" x="33" y="42" fill="#747574"></rect>
  <path fill="#bce3fa" d="M7 42.357l-1.044.224A2.473 2.473 0 004 45H7zM18.212 20H48V10H16v3.967A31.834 31.834 0 0018.212 20z"></path>
</svg>
